<?xml version="1.0" encoding="UTF-8" standalone="no"?>
<svg
   xmlns:dc="http://purl.org/dc/elements/1.1/"
   xmlns:cc="http://creativecommons.org/ns#"
   xmlns:rdf="http://www.w3.org/1999/02/22-rdf-syntax-ns#"
   xmlns:svg="http://www.w3.org/2000/svg"
   xmlns="http://www.w3.org/2000/svg"
   xmlns:sodipodi="http://sodipodi.sourceforge.net/DTD/sodipodi-0.dtd"
   xmlns:inkscape="http://www.inkscape.org/namespaces/inkscape"
   viewBox="0 0 42 39"
   width="100"
   version="1.1"
   id="svg30"
   sodipodi:docname="gamezeug-icon2.svg"
   inkscape:version="0.92.3 (2405546, 2018-03-11)"
   height="93"
   inkscape:export-filename="/home/artun/src/gamezeug-styleguide/favicon.png"
   inkscape:export-xdpi="187.26677"
   inkscape:export-ydpi="187.26677">
  <metadata
     id="metadata36">
    <rdf:RDF>
      <cc:Work
         rdf:about="">
        <dc:format>image/svg+xml</dc:format>
        <dc:type
           rdf:resource="http://purl.org/dc/dcmitype/StillImage" />
        <dc:title />
      </cc:Work>
    </rdf:RDF>
  </metadata>
  <defs
     id="defs34" />
  <sodipodi:namedview
     pagecolor="#ffffff"
     bordercolor="#666666"
     borderopacity="1"
     objecttolerance="10"
     gridtolerance="10"
     guidetolerance="10"
     inkscape:pageopacity="0"
     inkscape:pageshadow="2"
     inkscape:window-width="1853"
     inkscape:window-height="1025"
     id="namedview32"
     showgrid="false"
     inkscape:zoom="4.0000001"
     inkscape:cx="-21.639534"
     inkscape:cy="29.856911"
     inkscape:window-x="67"
     inkscape:window-y="27"
     inkscape:window-maximized="1"
     inkscape:current-layer="svg30"
     inkscape:measure-start="140,156"
     inkscape:measure-end="140,134" />
  <g
     id="g846"
     transform="matrix(0.98168357,0,0,0.98250213,-14.791337,-5.3244266)">
    <g
       transform="matrix(0.99944821,0,0,0.98315623,4.4544573,-6.5961341)"
       style="fill:#f3ad13;fill-opacity:1"
       id="g28">
      <svg
         style="fill:#f3ad13;fill-opacity:1"
         id="svg26"
         height="39"
         width="42"
         xml:space="preserve"
         enable-background="new 0 0 0 0"
         viewBox="11 13 42 39"
         y="13"
         x="11"
         version="1.1"
         data-color="1"><path
           inkscape:connector-curvature="0"
           id="path917-9"
           d="M 29.003311,28 C 35,28 35,28 35,28"
           style="fill:#f3ad13;fill-opacity:1;stroke:#f3ad13;stroke-width:0.36963251px;stroke-linecap:butt;stroke-linejoin:miter;stroke-opacity:1" /><path
           inkscape:connector-curvature="0"
           id="path917"
           d="m 29.000299,28.542584 c 5.996689,0 5.996689,0 5.996689,0"
           style="fill:#f3ad13;fill-opacity:1;stroke:#f3ad13;stroke-width:0.36963251px;stroke-linecap:butt;stroke-linejoin:miter;stroke-opacity:1" /><path
           sodipodi:nodetypes="ssscssssssssssssssssssssccccc"
           inkscape:connector-curvature="0"
           style="fill:#f3ad13;fill-opacity:1"
           id="path10"
           d="m 53,15 c 0,-2.232593 0.151223,-2 -2,-2 H 13 c -1.895531,0 -2.0035,0.128257 -2.014306,1.581791 L 11,50 c 8.19e-4,2.027892 -0.0056,2 2,2 h 38 c 2.028021,0 2,-0.19063 2,-2 z m -4,0.5 c 0.553,0 1,0.447 1,1 0,0.553 -0.447,1 -1,1 -0.553,0 -1,-0.447 -1,-1 0,-0.553 0.447,-1 1,-1 z m -3,0 c 0.553,0 1,0.447 1,1 0,0.553 -0.447,1 -1,1 -0.553,0 -1,-0.447 -1,-1 0,-0.553 0.447,-1 1,-1 z m -3,0 c 0.553,0 1,0.447 1,1 0,0.553 -0.447,1 -1,1 -0.553,0 -1,-0.447 -1,-1 0,-0.553 0.447,-1 1,-1 z M 51,50 H 13 V 22 h 38 z" /><path
           sodipodi:nodetypes="ccccccccccccccccccccccccccccccccccccccccccccccccccccccccccc"
           inkscape:connector-curvature="0"
           style="fill:#f3ad13;fill-opacity:1;paint-order:stroke fill markers"
           id="path24"
           d="M 43.061601,30.518722 43,33 h -2 v 1 h -2 v -1 h -2 v -2 h -2 v -3 h -1 v 3 h -4 v -3 h -1 v 3 h -2 v 2 h -2 v 1 h -2 v -1 h -2 l 0.0616,-2.410741 H 18.923451 L 19,34 h 2 v 1 h 2 v 1 h 2 v 2 h 3 v 2 1 c -0.0061,0.333333 -0.01215,0.666667 -0.01823,1 H 29 v -1 h 1 v -1 h 4 v 1 h 1 v 1 c 1.181593,-0.05926 1,0.876155 1,-4 h 3 v -2 h 2 v -1 h 2 v -1 h 2 l -0.0616,-3.410741 z m -11.023594,2.450972 1.831317,1.695826 -1.749823,1.681267 -1.802706,-1.671621 z" /></svg>    </g>
  </g>
</svg>
