<?xml version="1.0" encoding="UTF-8" standalone="no"?>
<svg
   xmlns:dc="http://purl.org/dc/elements/1.1/"
   xmlns:cc="http://creativecommons.org/ns#"
   xmlns:rdf="http://www.w3.org/1999/02/22-rdf-syntax-ns#"
   xmlns:svg="http://www.w3.org/2000/svg"
   xmlns="http://www.w3.org/2000/svg"
   xmlns:sodipodi="http://sodipodi.sourceforge.net/DTD/sodipodi-0.dtd"
   xmlns:inkscape="http://www.inkscape.org/namespaces/inkscape"
   viewBox="0 0 42 39"
   width="350"
   version="1.1"
   id="svg30"
   sodipodi:docname="Gamezeug2.svg"
   height="210"
   inkscape:version="0.92.3 (2405546, 2018-03-11)">
  <metadata
     id="metadata36">
    <rdf:RDF>
      <cc:Work
         rdf:about="">
        <dc:format>image/svg+xml</dc:format>
        <dc:type
           rdf:resource="http://purl.org/dc/dcmitype/StillImage" />
        <dc:title></dc:title>
      </cc:Work>
    </rdf:RDF>
  </metadata>
  <defs
     id="defs34" />
  <sodipodi:namedview
     pagecolor="#ffffff"
     bordercolor="#666666"
     borderopacity="1"
     objecttolerance="10"
     gridtolerance="10"
     guidetolerance="10"
     inkscape:pageopacity="0"
     inkscape:pageshadow="2"
     inkscape:window-width="1853"
     inkscape:window-height="1025"
     id="namedview32"
     showgrid="false"
     inkscape:zoom="1.4142136"
     inkscape:cx="-45.858498"
     inkscape:cy="200.50494"
     inkscape:window-x="67"
     inkscape:window-y="27"
     inkscape:window-maximized="1"
     inkscape:current-layer="svg30"
     inkscape:measure-start="140,156"
     inkscape:measure-end="140,134" />
  <g
     id="g28"
     style="fill:#f3ad13;fill-opacity:1"
     transform="matrix(0.53294217,0,0,0.46542858,9.5793499,20.325714)">
    <svg
       data-color="1"
       version="1.1"
       x="0px"
       y="0px"
       viewBox="11 13 42 39"
       enable-background="new 0 0 64 64"
       xml:space="preserve"
       width="42"
       height="39"
       id="svg26"
       style="fill:#f3ad13;fill-opacity:1"><path
         d="m 53,15 c 0,-2.232593 0.151223,-2 -2,-2 H 13 c -1.895531,0 -2.0035,0.128257 -2.014306,1.581791 L 11,50 c 8.19e-4,2.027892 -0.0056,2 2,2 h 38 c 2.028021,0 2,-0.19063 2,-2 z m -4,0.5 c 0.553,0 1,0.447 1,1 0,0.553 -0.447,1 -1,1 -0.553,0 -1,-0.447 -1,-1 0,-0.553 0.447,-1 1,-1 z m -3,0 c 0.553,0 1,0.447 1,1 0,0.553 -0.447,1 -1,1 -0.553,0 -1,-0.447 -1,-1 0,-0.553 0.447,-1 1,-1 z m -3,0 c 0.553,0 1,0.447 1,1 0,0.553 -0.447,1 -1,1 -0.553,0 -1,-0.447 -1,-1 0,-0.553 0.447,-1 1,-1 z M 51,50 H 13 V 22 h 38 z"
         id="path10"
         style="fill:#f3ad13;fill-opacity:1"
         inkscape:connector-curvature="0"
         sodipodi:nodetypes="ssscssssssssssssssssssssccccc" /><path
         d="M 43.061601,30.518722 43,33 h -2 v 1 h -2 v -1 h -2 v -2 h -2 v -3 h -1 v 3 h -4 v -3 h -1 v 3 h -2 v 2 h -2 v 1 h -2 v -1 h -2 l 0.0616,-2.410741 H 18.923451 L 19,34 h 2 v 1 h 2 v 1 h 2 v 2 h 3 v 2 1 c -0.0061,0.333333 -0.01215,0.666667 -0.01823,1 H 29 v -1 h 1 v -1 h 4 v 1 h 1 v 1 c 1.181593,-0.05926 1,0.876155 1,-4 h 3 v -2 h 2 v -1 h 2 v -1 h 2 l -0.0616,-3.410741 z m -11.023594,2.450972 1.831317,1.695826 -1.749823,1.681267 -1.802706,-1.671621 z"
         id="path24"
         style="fill:#f3ad13;fill-opacity:1;paint-order:stroke fill markers"
         inkscape:connector-curvature="0"
         sodipodi:nodetypes="ccccccccccccccccccccccccccccccccccccccccccccccccccccccccccc" /></svg>  </g>
  <text
     xml:space="preserve"
     style="font-style:normal;font-variant:normal;font-weight:500;font-stretch:normal;font-size:10.89523792px;line-height:1.25;font-family:'Spectral SC Medium';-inkscape-font-specification:'Spectral SC Medium, Medium';font-variant-ligatures:normal;font-variant-caps:normal;font-variant-numeric:normal;font-feature-settings:normal;text-align:start;letter-spacing:0px;word-spacing:0px;writing-mode:lr-tb;text-anchor:start;fill:#f3ad13;fill-opacity:1;stroke:none"
     x="-8.7311649"
     y="8.6980448"
     id="text40"><tspan
       sodipodi:role="line"
       id="tspan38"
       x="-8.7311649"
       y="8.6980448"
       style="font-style:normal;font-variant:normal;font-weight:500;font-stretch:normal;font-size:10.89523792px;font-family:'Spectral SC Medium';-inkscape-font-specification:'Spectral SC Medium, Medium';font-variant-ligatures:normal;font-variant-caps:normal;font-variant-numeric:normal;font-feature-settings:normal;text-align:start;writing-mode:lr-tb;text-anchor:start;fill:#f3ad13;fill-opacity:1">Gamezeug</tspan></text>
  <text
     xml:space="preserve"
     style="font-style:normal;font-variant:normal;font-weight:300;font-stretch:normal;font-size:3.96190476px;line-height:1.25;font-family:'Spectral SC Light';-inkscape-font-specification:'Spectral SC Light, Light';font-variant-ligatures:normal;font-variant-caps:normal;font-variant-numeric:normal;font-feature-settings:normal;text-align:start;letter-spacing:0px;word-spacing:0px;writing-mode:lr;text-anchor:start;fill:#f3ad13;fill-opacity:1;stroke:none;stroke-width:1;"
     x="-0.8647911"
     y="15.990237"
     id="text40-6"><tspan
       sodipodi:role="line"
       id="tspan38-0"
       x="-0.8647911"
       y="15.990237"
       style="font-style:normal;font-variant:normal;font-weight:300;font-stretch:normal;font-size:3.96190476px;font-family:'Spectral SC Light';-inkscape-font-specification:'Spectral SC Light, Light';font-variant-ligatures:normal;font-variant-caps:normal;font-variant-numeric:normal;font-feature-settings:normal;text-align:start;writing-mode:lr;text-anchor:start;fill:#f3ad13;fill-opacity:1;stroke-width:1;">Open source Gaming</tspan></text>
  <path
     style="fill:#f3ad13;fill-opacity:1;stroke:#f3ad13;stroke-width:0.18571429px;stroke-linecap:butt;stroke-linejoin:miter;stroke-opacity:1"
     d="m 19.172309,27.034375 c 3.197653,0 3.197653,0 3.197653,0"
     id="path917"
     inkscape:connector-curvature="0" />
  <path
     style="fill:#f3ad13;fill-opacity:1;stroke:#f3ad13;stroke-width:0.18571429px;stroke-linecap:butt;stroke-linejoin:miter;stroke-opacity:1"
     d="m 19.172309,27.307143 c 3.197653,0 3.197653,0 3.197653,0"
     id="path917-9"
     inkscape:connector-curvature="0" />
</svg>
